<?xml version="1.0" standalone="no"?>
<!DOCTYPE svg PUBLIC "-//W3C//DTD SVG 20010904//EN"
 "http://www.w3.org/TR/2001/REC-SVG-20010904/DTD/svg10.dtd">
<svg version="1.0" xmlns="http://www.w3.org/2000/svg"
 width="512.000000pt" height="512.000000pt" viewBox="0 0 512.000000 512.000000"
 preserveAspectRatio="xMidYMid meet">
<metadata>
Created by potrace 1.14, written by Peter Selinger 2001-2017
</metadata>
<g transform="translate(0.000000,512.000000) scale(0.100000,-0.100000)"
fill="#000000" stroke="none">
<path d="M2120 5110 c12 -8 8 -10 -15 -11 -16 -1 -36 -2 -43 -2 -7 1 -11 -1
-8 -5 8 -7 -35 -28 -73 -37 -17 -4 -31 -11 -31 -16 0 -6 -5 -7 -10 -4 -6 4
-22 0 -35 -9 -13 -9 -37 -16 -52 -16 -22 0 -25 -2 -13 -10 11 -7 7 -10 -17
-10 -18 0 -33 -4 -33 -10 0 -5 -8 -10 -19 -10 -10 0 -31 -6 -46 -14 -15 -8
-36 -13 -46 -11 -10 2 -18 -1 -16 -8 1 -7 -8 -11 -20 -11 -14 1 -23 -4 -23
-13 0 -8 -8 -13 -18 -11 -11 2 -27 -4 -37 -12 -13 -10 -16 -11 -11 -2 7 11 4
11 -15 0 -13 -7 -26 -15 -29 -18 -6 -6 -29 -12 -57 -14 -11 0 -19 -4 -16 -8 4
-8 -7 -11 -39 -11 -10 0 -16 -2 -14 -6 3 -3 -7 -11 -20 -18 -14 -6 -21 -7 -18
-1 4 6 -5 3 -18 -6 -14 -9 -28 -13 -31 -9 -4 3 -7 1 -7 -5 0 -10 -56 -28 -73
-24 -5 2 -5 -3 -1 -9 5 -8 -2 -10 -24 -7 -18 3 -30 0 -29 -6 1 -6 -9 -12 -23
-14 -14 -2 -29 -8 -35 -13 -5 -5 -20 -9 -35 -9 -20 0 -22 -2 -10 -10 12 -8 10
-10 -10 -10 -15 0 -32 -6 -39 -12 -11 -11 -13 -10 -7 2 7 13 6 13 -6 0 -7 -8
-17 -15 -23 -16 -5 0 -23 -6 -38 -12 -16 -7 -33 -10 -38 -6 -5 3 -12 -2 -15
-11 -4 -9 -15 -15 -28 -13 -13 2 -20 -2 -18 -10 1 -8 -2 -11 -6 -8 -5 3 -20
-3 -32 -14 -13 -11 -20 -20 -17 -20 4 0 -2 -9 -14 -21 -11 -11 -18 -27 -15
-35 3 -9 2 -12 -5 -9 -6 4 -13 -2 -16 -14 -3 -12 -10 -21 -16 -21 -6 0 -8 -3
-4 -6 3 -4 1 -12 -6 -20 -31 -34 -37 -44 -37 -59 0 -9 -4 -13 -10 -10 -5 3
-10 0 -10 -8 0 -7 -9 -23 -20 -34 -14 -15 -16 -23 -7 -26 7 -3 4 -6 -6 -6 -10
-1 -15 -5 -12 -11 3 -5 1 -10 -5 -10 -5 0 -18 -16 -27 -35 -9 -19 -20 -35 -25
-35 -4 0 -8 -9 -8 -20 0 -11 -4 -20 -10 -20 -5 0 -10 -7 -10 -16 0 -8 -4 -12
-10 -9 -5 3 -10 -3 -10 -13 0 -11 -7 -22 -15 -26 -8 -3 -12 -12 -9 -21 3 -8 1
-15 -6 -15 -6 0 -8 -4 -5 -10 3 -5 3 -15 -1 -22 -4 -6 -9 -30 -11 -52 -5 -56
-7 -69 -17 -85 -6 -9 -5 -12 1 -8 5 3 10 0 10 -8 0 -8 -4 -12 -9 -9 -4 3 -8
-12 -8 -33 0 -22 -5 -44 -11 -50 -8 -8 -8 -13 0 -17 6 -4 11 -13 11 -19 0 -7
-4 -6 -10 3 -7 11 -10 0 -10 -37 0 -28 -5 -55 -10 -58 -8 -5 -7 -12 2 -23 11
-13 11 -14 0 -8 -9 5 -13 3 -11 -5 4 -34 -2 -90 -9 -85 -5 3 -9 -1 -9 -9 0 -8
5 -11 11 -8 6 4 5 0 -2 -9 -6 -8 -13 -40 -14 -71 -1 -32 -6 -53 -12 -50 -5 4
-7 -1 -3 -10 3 -10 3 -17 -1 -17 -4 0 -7 -17 -6 -38 0 -20 -4 -43 -10 -51 -8
-11 -8 -13 1 -7 9 5 11 2 7 -8 -3 -9 -9 -14 -13 -11 -4 2 -8 -2 -8 -10 0 -8 5
-11 10 -8 6 4 7 1 1 -8 -5 -8 -9 -30 -10 -49 -3 -49 -3 -52 -12 -46 -4 2 -7
-16 -7 -41 1 -24 -2 -46 -6 -49 -4 -2 -5 -14 -1 -26 3 -12 1 -19 -5 -15 -5 4
-10 -13 -12 -41 -3 -61 -6 -80 -14 -88 -3 -4 -2 -16 4 -27 8 -14 8 -18 0 -13
-10 7 -17 -35 -12 -73 2 -7 -2 -11 -7 -7 -5 3 -9 -1 -9 -9 0 -8 5 -11 11 -8 6
4 5 0 -2 -9 -7 -9 -14 -31 -14 -48 -1 -17 -5 -33 -10 -36 -5 -3 -4 -12 3 -20
6 -8 7 -14 2 -14 -5 0 -10 -6 -11 -12 -7 -57 -10 -86 -11 -106 -1 -16 -5 -21
-14 -16 -8 5 -8 2 2 -9 7 -10 9 -17 3 -17 -6 0 -9 -17 -8 -40 2 -22 -1 -40 -6
-40 -5 0 -6 -10 -3 -21 6 -16 4 -20 -6 -13 -11 6 -12 5 -2 -7 8 -10 9 -19 3
-25 -6 -6 -11 -29 -12 -52 -1 -22 -5 -39 -10 -36 -12 8 -5 -19 7 -28 6 -5 5
-8 -2 -8 -8 0 -13 -15 -13 -39 0 -22 -4 -43 -10 -46 -5 -3 -10 -12 -10 -18 0
-7 4 -6 10 3 6 9 10 10 10 3 0 -6 -4 -15 -10 -18 -5 -3 -10 -24 -10 -45 0 -21
-5 -42 -10 -45 -8 -5 -8 -11 -1 -19 7 -8 7 -16 1 -22 -5 -5 -10 -31 -11 -57
-2 -35 -6 -46 -15 -43 -10 4 -11 -1 -4 -19 5 -14 6 -25 1 -25 -4 0 -7 -12 -5
-27 1 -15 -2 -33 -8 -40 -7 -9 -7 -13 1 -13 7 0 9 -5 6 -10 -4 -6 -12 -7 -18
-3 -7 4 -6 0 2 -10 7 -9 9 -17 4 -17 -5 0 -9 -20 -8 -45 0 -32 -3 -44 -12 -41
-10 4 -10 1 0 -15 8 -13 9 -22 2 -27 -10 -7 -13 -23 -18 -99 -1 -17 -5 -29 -8
-27 -6 3 -10 -28 -10 -89 0 -11 -5 -15 -12 -10 -7 4 -5 -2 3 -12 8 -10 10 -16
4 -12 -8 5 -11 -9 -10 -46 1 -46 4 -52 24 -55 12 -2 20 -7 18 -11 -3 -4 1 -8
9 -9 8 -1 22 -3 30 -4 8 -1 17 -8 20 -16 3 -8 12 -12 19 -9 8 3 16 3 18 -1 6
-14 77 -44 87 -37 7 3 10 3 9 -2 -2 -4 0 -8 3 -8 3 0 13 -6 22 -13 9 -8 22
-10 28 -6 7 4 10 3 6 -2 -3 -5 6 -14 19 -21 18 -8 23 -8 18 0 -3 7 2 3 10 -7
9 -11 16 -16 16 -10 0 5 6 2 13 -6 7 -8 21 -16 32 -17 11 -2 32 -4 47 -6 21
-3 26 -1 23 14 -2 11 1 19 7 19 7 0 6 5 -1 14 -9 10 -9 16 -1 21 6 4 9 13 6
21 -3 8 -2 14 3 14 4 0 7 21 7 47 -1 26 4 58 11 70 7 13 8 21 3 18 -6 -4 -10
1 -10 10 0 9 4 13 10 10 6 -4 10 15 10 49 0 48 2 54 17 49 12 -5 14 -3 8 8 -6
11 -5 12 6 2 7 -7 21 -13 31 -13 10 0 18 -4 18 -8 0 -8 89 -38 102 -34 5 1 7
-3 5 -9 -1 -6 9 -13 23 -15 13 -3 27 -8 30 -12 3 -4 14 -9 25 -10 11 -2 22 -8
23 -13 2 -5 12 -9 22 -9 10 0 22 -4 25 -10 3 -5 17 -10 31 -10 14 0 22 -4 19
-10 -4 -6 5 -10 19 -10 14 0 26 -5 26 -11 0 -5 4 -8 9 -4 5 3 12 1 16 -4 3 -6
13 -7 22 -4 11 4 14 3 9 -5 -5 -8 0 -12 13 -12 31 0 35 -2 48 -19 7 -9 13 -12
13 -7 0 5 10 1 22 -10 13 -12 18 -13 13 -4 -8 13 -7 13 8 1 9 -7 17 -10 17 -5
0 5 5 1 11 -8 5 -10 21 -18 34 -18 14 0 25 -4 25 -10 0 -5 12 -10 26 -10 17 0
23 -4 18 -12 -5 -8 -2 -9 9 -5 9 3 19 2 22 -4 4 -5 10 -7 15 -4 4 3 13 -2 20
-10 8 -10 21 -13 33 -9 13 4 17 2 13 -5 -4 -6 -2 -12 3 -12 6 -1 16 -3 21 -4
6 -1 17 -3 26 -4 8 0 12 -6 9 -11 -4 -6 5 -10 19 -10 14 0 26 -4 26 -10 0 -5
12 -10 26 -10 14 0 23 -4 19 -10 -4 -6 7 -10 25 -10 18 0 29 -4 25 -10 -5 -9
23 -15 48 -11 4 0 7 -3 7 -7 0 -9 70 -37 83 -34 4 1 7 -4 7 -11 0 -8 4 -7 10
3 8 13 10 12 10 -2 0 -13 8 -18 26 -18 16 0 23 -4 18 -12 -4 -6 -3 -8 3 -5 5
3 22 -1 37 -9 16 -7 37 -14 47 -14 11 0 19 -4 19 -9 0 -7 14 -13 48 -21 4 -1
16 -9 26 -18 11 -9 16 -11 12 -5 -5 9 -2 11 8 7 9 -3 16 -11 16 -16 0 -6 9 -8
20 -5 13 3 20 0 20 -10 0 -8 5 -11 11 -8 5 4 19 -1 29 -10 10 -9 23 -14 29
-11 5 4 14 -2 20 -11 6 -10 11 -13 11 -8 0 6 6 -1 14 -15 9 -18 10 -29 2 -39
-8 -11 -8 -13 2 -7 16 10 13 -25 -3 -36 -7 -5 -7 -8 0 -8 6 0 11 -33 12 -75 1
-56 -1 -74 -10 -68 -9 5 -9 3 -1 -8 15 -18 14 -80 0 -72 -6 4 -5 -1 2 -9 15
-18 13 -59 -3 -70 -6 -5 -5 -8 3 -8 8 0 13 -10 12 -27 -3 -44 -1 -67 6 -60 4
3 16 0 28 -8 11 -8 29 -15 39 -15 11 0 15 -4 11 -12 -5 -8 -2 -9 9 -5 9 3 23
0 31 -8 8 -8 24 -15 36 -15 12 0 18 -4 15 -10 -3 -5 3 -10 14 -10 11 0 23 -5
26 -10 3 -6 14 -10 25 -10 10 0 21 -7 24 -15 3 -9 11 -15 18 -14 24 3 39 -1
34 -9 -2 -4 7 -9 22 -10 15 -1 29 -7 30 -12 2 -6 16 -10 30 -10 21 0 24 -2 12
-10 -25 -16 124 -12 156 4 15 8 32 12 37 9 6 -3 7 -1 3 5 -4 7 -3 12 1 12 5 0
35 16 67 35 32 19 65 35 72 35 8 0 14 5 14 10 0 6 9 10 21 10 11 0 17 4 14 10
-3 5 3 10 14 10 12 0 21 5 21 10 0 6 7 10 15 10 8 0 15 5 15 11 0 5 5 7 10 4
6 -3 10 -1 10 5 0 6 4 9 8 6 5 -3 19 4 30 15 12 10 23 19 24 19 11 -4 37 14
32 21 -3 5 1 9 8 9 9 0 13 15 11 53 -1 28 -2 89 -4 134 -1 58 -5 81 -13 76 -6
-3 -5 0 2 8 13 15 17 43 4 35 -5 -3 -9 1 -9 9 0 8 4 12 9 9 12 -8 10 10 -4 24
-8 8 -8 15 2 27 10 12 10 15 -1 15 -11 0 -11 2 1 10 12 8 12 10 1 10 -11 0
-11 3 -1 15 7 8 9 15 6 15 -4 0 -1 7 8 15 8 8 20 15 26 15 6 0 13 7 16 15 4 8
10 13 14 10 4 -3 10 2 14 10 3 8 14 15 24 15 10 0 28 9 40 21 13 11 31 21 42
22 11 1 20 5 20 9 0 4 7 8 16 8 8 0 12 5 9 10 -4 6 -3 9 2 8 14 -4 53 13 53
23 0 6 5 7 10 4 6 -3 10 -1 10 6 0 7 3 9 6 6 4 -4 19 2 34 13 16 11 36 20 45
20 9 0 13 5 10 10 -3 6 3 10 15 10 12 0 28 7 37 15 8 8 19 12 25 9 7 -4 8 -2
4 4 -4 7 -1 12 8 12 9 0 16 6 16 13 0 8 4 7 10 -3 5 -8 10 -10 10 -4 0 7 9 14
21 17 12 3 18 10 15 15 -4 6 5 9 20 7 15 -1 28 3 31 11 3 8 9 11 14 8 5 -3 9
0 9 6 0 6 5 8 10 5 6 -3 10 -1 10 4 0 6 9 11 21 11 11 0 17 5 14 10 -3 6 4 10
18 10 13 0 33 9 45 20 12 11 33 20 47 20 14 0 24 4 20 9 -5 9 32 27 48 23 4
-1 7 3 7 8 0 6 9 10 21 10 11 0 17 5 14 10 -3 6 0 10 8 10 8 0 27 7 43 14 15
8 32 12 37 9 6 -3 7 -1 3 5 -6 11 13 17 37 13 5 -1 6 3 2 9 -3 5 -2 10 4 10
21 0 131 57 124 64 -5 4 -1 7 7 6 8 -1 24 -2 35 -1 17 1 18 3 5 11 -11 7 -7
10 17 10 17 0 33 4 35 9 2 5 10 11 18 13 8 2 18 7 21 11 3 4 15 9 27 10 11 0
19 4 16 8 -5 9 20 18 42 15 14 -2 19 -12 20 -44 0 -23 7 -49 15 -58 9 -12 10
-15 2 -10 -7 4 -13 2 -13 -3 0 -6 3 -11 8 -11 4 0 8 -35 10 -78 2 -42 10 -92
18 -109 l15 -33 115 0 c88 0 120 4 139 16 13 9 30 12 36 8 8 -4 9 -3 5 4 -4 7
-1 12 9 12 8 0 18 7 21 15 4 8 10 12 15 9 5 -3 12 2 15 10 3 9 10 13 15 10 5
-3 9 -1 9 5 0 5 13 22 29 37 17 15 28 31 25 36 -3 4 0 8 6 8 6 0 15 11 22 25
6 13 15 22 20 19 5 -3 8 2 6 12 -2 12 2 18 11 16 12 -3 12 -1 0 14 -9 12 -9
15 -1 10 6 -4 12 -2 12 3 0 6 -4 11 -9 11 -5 0 -11 12 -14 27 -7 35 -11 49
-27 93 -8 19 -12 36 -9 37 2 1 -5 9 -16 18 -11 9 -13 13 -5 9 12 -6 13 -5 4 7
-13 16 -12 104 1 116 4 5 5 3 1 -4 -8 -15 6 -24 22 -14 9 5 5 12 -13 21 -14 7
-25 20 -25 27 0 8 -4 11 -10 8 -6 -3 -10 1 -10 9 0 19 -27 21 -32 4 -4 -12
-11 73 -10 117 1 11 -3 22 -8 25 -4 3 -9 25 -11 50 -1 25 -7 51 -13 59 -8 11
-8 13 2 7 6 -4 12 -3 12 3 0 5 -4 11 -9 13 -6 2 -11 29 -12 61 -1 31 -6 57
-10 57 -4 0 -9 7 -13 15 -3 8 -2 14 2 14 21 -3 24 3 6 17 -10 8 -12 12 -4 8
12 -6 13 -5 4 7 -5 8 -10 21 -9 29 1 8 -3 29 -8 45 -5 17 -11 53 -13 80 -6 74
-9 89 -19 104 -6 11 -4 13 11 8 18 -7 18 -6 2 7 -13 10 -18 28 -18 69 0 35 -5
57 -12 60 -10 4 -9 8 2 16 10 7 11 11 3 11 -8 0 -13 14 -13 34 0 19 -5 38 -10
41 -8 5 -8 11 0 20 6 7 7 16 2 19 -8 5 -10 20 -15 94 0 12 -5 22 -11 22 -5 0
-6 3 -3 7 4 3 1 13 -6 21 -10 13 -9 14 2 7 11 -6 13 -4 7 11 -5 10 -9 28 -10
39 -1 11 -6 26 -10 34 -7 10 -5 12 3 6 10 -6 11 -3 3 11 -5 11 -7 25 -5 32 3
6 0 12 -6 12 -5 0 -9 10 -9 23 3 47 -2 88 -10 83 -5 -3 -9 1 -9 9 0 8 4 12 8
9 4 -2 11 0 14 6 4 6 1 9 -6 8 -7 -2 -15 5 -17 16 -3 13 0 16 10 11 10 -6 11
-5 1 6 -7 7 -13 26 -13 42 0 15 -4 26 -8 23 -5 -3 -9 1 -9 9 0 8 4 12 9 9 4
-3 8 0 8 5 0 6 -5 11 -11 11 -8 0 -7 6 2 17 10 11 10 14 2 9 -10 -5 -13 5 -13
39 0 34 -3 44 -12 39 -9 -5 -9 -2 1 9 10 13 10 17 1 17 -9 0 -9 4 1 17 10 11
10 14 2 9 -10 -5 -13 5 -13 38 0 30 -4 46 -12 46 -9 0 -8 4 2 10 9 6 11 13 5
18 -12 9 -15 20 -17 72 -1 22 -5 40 -10 40 -5 0 -4 10 3 21 8 15 8 19 0 15
-11 -7 -13 10 -14 101 -1 27 -3 30 -16 20 -12 -10 -13 -9 -2 11 6 12 8 22 4
22 -5 0 -8 12 -7 28 1 15 -3 33 -9 40 -6 8 -6 12 3 12 9 0 10 3 1 14 -6 7 -13
43 -15 81 -3 37 -7 70 -10 73 -3 3 -6 -1 -6 -9 0 -8 -8 2 -17 21 -10 19 -25
42 -35 51 -10 9 -18 22 -18 29 0 7 -9 21 -21 31 -12 10 -18 23 -13 30 4 8 3 9
-4 5 -7 -4 -12 -1 -12 8 0 9 -4 16 -10 16 -5 0 -10 7 -10 16 0 8 -4 12 -10 9
-5 -3 -10 1 -10 9 0 15 -15 38 -47 71 -7 8 -13 21 -13 29 0 9 -5 15 -12 14 -7
-2 -12 4 -13 12 -1 8 -7 14 -14 12 -7 -1 -10 2 -7 7 4 5 1 15 -6 23 -24 25
-58 77 -58 88 0 5 -7 10 -16 10 -8 0 -12 5 -9 10 3 6 -1 10 -9 10 -9 0 -16 5
-16 11 0 5 -4 7 -10 4 -5 -3 -10 -2 -10 3 0 6 -9 8 -20 5 -11 -3 -20 0 -20 6
0 6 -3 10 -7 10 -5 -1 -10 0 -13 1 -11 4 -46 11 -67 13 -11 1 -19 5 -16 10 2
4 -7 7 -21 7 -14 0 -26 5 -26 10 0 6 -12 10 -26 10 -14 0 -23 3 -21 8 3 4 -9
8 -26 9 -18 2 -33 7 -35 13 -2 5 -19 10 -38 10 -21 0 -33 4 -29 10 4 6 -8 10
-28 10 -22 0 -37 6 -41 15 -3 8 -12 12 -20 9 -8 -3 -29 2 -46 11 -17 9 -38 14
-46 11 -9 -3 -14 1 -14 12 0 15 -2 15 -10 2 -6 -10 -10 -11 -10 -2 0 6 -11 12
-24 12 -14 0 -28 5 -31 10 -3 6 -20 10 -36 10 -18 0 -28 4 -24 10 4 6 -6 10
-24 10 -16 0 -31 4 -33 9 -1 6 -16 12 -33 15 -16 3 -31 10 -33 15 -2 6 -9 8
-16 5 -7 -3 -26 1 -42 7 -16 7 -40 14 -54 16 -14 2 -26 8 -28 14 -2 5 -17 9
-33 9 -17 0 -28 4 -25 8 2 4 -10 9 -27 10 -18 2 -33 7 -35 12 -2 6 -14 10 -27
10 -13 0 -25 4 -27 10 -1 5 -19 11 -40 12 -20 2 -34 6 -31 11 4 7 -11 11 -33
8 -6 -1 -24 6 -40 14 -16 8 -37 15 -47 15 -11 0 -15 4 -11 12 4 7 3 8 -4 4 -6
-4 -25 0 -42 9 -16 8 -32 15 -35 15 -45 -2 -59 1 -45 10 9 6 -107 9 -315 9
-219 1 -325 -2 -315 -9z m195 -20 c5 8 11 8 20 0 8 -7 14 -7 17 -1 2 6 17 7
41 2 20 -5 39 -6 42 -2 5 9 93 7 102 -2 3 -4 12 -2 18 3 9 7 16 6 24 -4 6 -8
21 -12 31 -9 11 3 20 0 20 -6 0 -6 5 -11 11 -11 5 0 7 6 3 13 -4 6 2 4 13 -5
11 -10 30 -18 42 -18 12 0 20 -4 17 -8 -3 -5 9 -9 26 -10 17 0 36 -6 41 -11 6
-6 19 -11 29 -11 10 0 18 -6 18 -12 0 -9 4 -8 10 2 6 10 10 11 10 3 0 -7 12
-13 26 -13 14 0 23 -4 19 -10 -4 -6 10 -10 34 -10 23 0 41 -4 41 -10 0 -5 11
-10 25 -10 14 0 25 -4 25 -8 0 -4 8 -8 18 -9 30 -2 47 -8 54 -17 3 -5 15 -10
26 -11 11 -1 28 -8 38 -16 10 -8 15 -9 11 -2 -5 7 4 6 23 -3 16 -9 35 -12 41
-8 8 4 9 3 5 -4 -6 -11 19 -18 47 -13 4 0 7 -4 7 -9 0 -6 9 -10 20 -10 11 0
20 -6 20 -12 0 -9 4 -8 10 2 5 8 10 10 10 4 0 -6 6 -11 13 -12 49 -6 60 -10
67 -22 5 -8 12 -11 16 -7 4 4 14 1 22 -6 13 -10 15 -9 8 3 -4 9 -1 8 7 -2 8
-10 26 -18 40 -18 14 0 29 -4 32 -10 3 -5 17 -10 31 -10 13 0 24 -4 24 -8 0
-4 12 -9 28 -10 15 -1 29 -7 30 -12 2 -6 17 -10 33 -10 16 0 29 -5 29 -11 0
-6 7 -9 15 -5 8 3 15 1 15 -4 0 -5 7 -6 17 -3 11 4 14 3 9 -5 -5 -8 -2 -10 8
-6 9 3 16 1 16 -6 0 -6 5 -8 10 -5 6 4 18 1 27 -7 14 -11 16 -11 9 1 -6 8 0 7
18 -4 14 -10 26 -13 26 -9 0 5 5 1 11 -9 6 -9 14 -15 18 -13 11 7 123 -29 115
-37 -4 -3 2 -5 13 -2 12 2 32 -3 47 -10 14 -8 26 -11 26 -8 0 3 6 0 13 -6 8
-6 17 -8 20 -4 4 3 7 -1 7 -11 0 -9 5 -14 10 -11 15 9 12 -27 -4 -47 -7 -10
-21 -18 -30 -18 -10 0 -14 -5 -11 -10 4 -6 3 -10 -2 -9 -26 5 -63 -2 -58 -11
4 -6 -7 -10 -25 -10 -18 0 -29 -4 -25 -10 3 -5 -1 -11 -9 -11 -9 -1 -20 -3
-26 -4 -5 -1 -15 -3 -21 -4 -5 0 -7 -6 -3 -12 4 -8 0 -9 -15 -4 -14 4 -21 2
-21 -7 0 -10 -3 -9 -10 2 -8 13 -10 12 -10 -4 0 -11 -3 -16 -6 -13 -4 3 -16 1
-28 -6 -32 -18 -89 -37 -111 -37 -17 0 -17 -2 -5 -10 11 -7 6 -10 -20 -10 -19
0 -44 -7 -54 -15 -10 -8 -23 -12 -27 -9 -5 3 -9 1 -9 -3 0 -8 -71 -39 -78 -34
-1 1 -17 -6 -35 -15 -60 -31 -67 -34 -87 -34 -12 0 -18 -4 -15 -10 5 -9 -32
-16 -58 -11 -5 1 -6 -3 -2 -9 4 -6 -4 -10 -19 -10 -14 0 -26 -4 -26 -10 0 -5
-6 -10 -14 -10 -7 0 -27 -7 -42 -15 -16 -8 -36 -15 -44 -15 -9 0 -26 -7 -38
-16 -12 -8 -27 -12 -34 -8 -7 4 -8 3 -4 -4 4 -7 1 -12 -9 -12 -9 0 -35 -9 -57
-20 -23 -11 -50 -20 -60 -20 -11 0 -16 -4 -13 -10 3 -5 3 -10 -2 -11 -45 -5
-126 -32 -118 -41 3 -2 -4 -4 -15 -3 -11 1 -23 4 -26 8 -4 4 -13 2 -21 -4 -10
-9 -17 -8 -30 2 -9 8 -14 9 -10 3 7 -12 -48 -13 -60 -1 -3 4 -12 2 -19 -4 -8
-7 -14 -7 -19 1 -3 6 -12 7 -18 3 -17 -11 -96 -10 -90 1 4 5 0 5 -8 0 -22 -13
-42 -14 -58 -1 -9 7 -12 7 -8 1 8 -13 -51 -13 -72 0 -9 6 -12 5 -7 -2 7 -12
-44 -9 -65 4 -7 4 -9 3 -6 -3 4 -6 -7 -10 -27 -9 -20 1 -32 5 -28 11 3 6 -3 3
-13 -5 -14 -11 -19 -12 -22 -2 -3 6 -13 12 -23 12 -10 0 -22 5 -26 11 -4 8 -9
7 -15 -2 -7 -12 -10 -12 -21 0 -11 11 -11 13 1 6 10 -6 12 -4 7 4 -4 7 -13 10
-19 8 -7 -2 -21 3 -31 12 -16 13 -18 13 -11 1 6 -12 5 -13 -6 -2 -7 6 -23 12
-36 12 -13 0 -23 5 -23 10 0 6 -13 10 -30 10 -16 0 -30 5 -30 12 0 6 -3 9 -6
6 -6 -7 -83 17 -123 38 -13 7 -29 11 -33 8 -5 -3 -19 2 -30 13 -15 12 -19 13
-13 3 6 -12 5 -13 -6 -2 -7 6 -26 12 -42 12 -16 0 -26 4 -22 10 5 8 -31 15
-57 11 -5 0 -8 4 -8 9 0 6 -12 10 -26 10 -14 0 -23 4 -19 10 5 9 -40 16 -68
11 -5 -1 -6 3 -2 9 4 6 -4 10 -19 10 -14 0 -26 4 -26 8 0 4 -12 9 -27 10 -14
1 -35 10 -46 20 -11 9 -17 11 -13 5 4 -7 2 -13 -3 -13 -6 0 -11 5 -11 12 0 6
-3 8 -7 5 -3 -4 -12 -2 -20 4 -7 6 -13 9 -13 6 0 -3 -16 1 -35 9 -20 8 -41 12
-47 8 -7 -4 -8 -3 -4 4 5 8 -3 12 -23 12 -16 0 -31 4 -33 9 -1 5 -14 11 -28
13 -14 1 -28 7 -31 12 -4 4 -20 9 -37 9 -17 1 -28 5 -26 8 6 10 -22 19 -46 14
-11 -2 -18 0 -15 5 3 5 1 11 -5 15 -5 3 -10 1 -10 -6 0 -10 -3 -10 -12 -1 -7
7 -20 12 -30 12 -10 0 -18 5 -18 12 0 6 -3 8 -7 5 -3 -4 -17 0 -31 9 -13 9
-21 11 -18 5 11 -17 -3 -13 -26 8 -38 36 -22 131 23 131 5 0 7 5 3 12 -4 7 -3
8 5 4 6 -4 25 0 43 8 17 9 40 16 50 16 11 0 26 7 34 15 8 8 21 12 30 8 8 -3
21 2 28 12 8 12 20 16 30 12 11 -5 15 -3 10 5 -5 8 -2 9 9 5 10 -3 17 -2 17 3
0 6 9 10 20 10 11 0 20 5 20 10 0 6 11 10 24 10 14 0 28 5 31 10 3 6 17 10 31
10 13 0 24 5 24 10 0 6 12 10 26 10 14 0 23 4 19 9 -3 6 4 8 15 6 12 -2 23 2
27 11 4 12 8 12 22 2 9 -7 13 -8 9 -4 -8 9 34 36 56 36 6 0 24 7 40 15 16 9
36 13 43 11 8 -3 16 0 19 7 2 7 16 14 31 15 15 1 30 7 34 13 3 6 9 10 13 10
24 -3 36 1 36 12 0 9 10 12 31 9 22 -3 30 -1 25 7 -5 7 2 11 19 11 18 0 24 4
19 13 -5 7 0 6 11 -3 11 -9 16 -10 11 -2 -4 6 -2 12 3 12 20 0 26 2 46 13 19
12 26 13 53 16 7 0 11 5 8 10 -3 5 6 9 21 9 15 0 29 5 31 11 2 6 16 11 32 11
16 0 30 4 32 10 2 5 15 11 30 12 15 1 24 6 22 10 -5 8 10 12 34 9 6 -1 12 3
12 9 0 6 5 8 10 5 6 -3 10 -1 10 5 0 7 7 9 17 6 9 -4 20 -1 24 6 5 7 14 13 21
14 7 0 21 2 31 2 10 1 15 7 11 13 -5 8 -1 8 14 0 14 -8 23 -8 27 -1z m-1440
-730 c-6 -10 50 -27 68 -22 5 1 6 -2 2 -8 -5 -9 31 -16 58 -11 5 1 6 -3 2 -9
-3 -6 4 -10 17 -10 13 0 29 -5 36 -12 9 -9 12 -9 12 1 0 9 5 8 16 -3 8 -9 24
-16 35 -16 10 0 19 -5 19 -11 0 -5 5 -7 10 -4 6 4 22 -1 37 -10 17 -12 23 -13
18 -4 -6 11 -5 12 6 2 7 -7 23 -13 35 -13 12 0 24 -4 26 -10 2 -5 15 -11 31
-12 15 -1 27 -6 27 -10 0 -4 14 -8 31 -8 17 0 28 -4 24 -10 -4 -6 8 -10 30
-10 22 0 34 -4 30 -10 -5 -9 21 -14 62 -13 7 1 10 -3 7 -8 -5 -8 18 -13 53
-12 7 1 10 -3 7 -8 -4 -8 4 -10 31 -9 3 0 19 -7 35 -15 17 -9 30 -13 30 -9 0
4 7 1 16 -7 14 -11 27 -15 72 -21 6 -1 12 -5 12 -10 0 -4 8 -8 19 -8 10 0 31
-7 47 -14 15 -8 31 -13 36 -10 5 3 15 1 22 -5 8 -7 28 -13 45 -14 17 -1 31 -7
31 -14 0 -6 8 -10 18 -8 9 1 24 -4 33 -12 9 -7 20 -13 25 -12 27 5 64 -2 59
-11 -4 -6 5 -10 20 -10 14 0 24 -4 21 -8 -2 -4 3 -8 12 -9 47 -3 70 -8 66 -15
-3 -4 0 -8 6 -8 15 0 40 -25 40 -40 0 -6 5 -8 10 -5 6 3 10 -3 10 -15 0 -12 5
-18 10 -15 6 3 10 -1 10 -10 0 -9 11 -28 24 -42 14 -15 23 -30 20 -35 -3 -5 0
-7 7 -6 7 2 13 -3 14 -10 0 -7 6 -16 13 -21 8 -5 14 -12 15 -17 1 -5 6 -8 10
-6 5 1 6 -2 3 -6 -3 -5 3 -20 14 -32 11 -12 17 -27 13 -33 -3 -5 -1 -7 5 -3 6
3 13 -3 17 -14 3 -11 10 -20 14 -20 5 0 14 -13 21 -30 7 -16 16 -30 21 -30 5
0 9 -7 9 -16 0 -8 5 -12 10 -9 6 3 10 -3 10 -15 0 -12 5 -18 10 -15 6 3 10 0
10 -8 0 -7 9 -23 20 -35 13 -14 16 -22 8 -22 -10 0 -10 -2 1 -9 12 -8 14 -254
14 -1631 l0 -1622 -23 -21 c-20 -20 -22 -20 -16 -3 5 16 4 17 -9 6 -10 -8 -15
-9 -15 -1 0 6 -9 11 -19 11 -11 0 -21 5 -23 10 -2 6 -13 12 -25 13 -12 0 -19
5 -17 9 3 4 -6 8 -20 8 -13 0 -26 4 -28 10 -1 5 -13 11 -26 13 -13 2 -32 11
-42 20 -11 9 -20 14 -20 12 0 -13 -86 43 -95 61 -6 12 -10 106 -9 222 0 111
-4 202 -8 202 -5 0 -6 5 -3 10 3 6 1 10 -5 10 -7 0 -10 6 -7 14 5 12 -23 34
-30 24 -2 -2 -10 7 -18 19 -9 13 -22 20 -30 17 -8 -4 -15 -1 -15 5 0 6 -9 11
-20 11 -11 0 -20 5 -20 12 0 6 -3 8 -6 5 -4 -4 -21 1 -38 10 -68 35 -68 35
-61 21 3 -7 -1 -4 -9 6 -9 11 -16 16 -16 12 0 -5 -6 -3 -13 3 -8 6 -17 8 -20
4 -4 -3 -7 0 -7 7 0 7 -3 10 -7 7 -3 -4 -12 -2 -20 4 -7 6 -13 8 -13 3 0 -5
-4 -3 -9 4 -4 7 -17 14 -29 15 -11 0 -18 5 -16 9 3 4 -10 8 -28 8 -25 0 -29 3
-18 10 11 7 7 10 -17 10 -18 0 -33 5 -33 10 0 6 -12 10 -26 10 -17 0 -23 4
-18 12 5 8 2 9 -9 5 -10 -3 -17 -2 -17 3 0 6 -3 9 -7 9 -20 -3 -34 2 -29 10 3
5 0 9 -7 8 -31 -1 -48 4 -42 12 3 6 -4 8 -15 6 -11 -2 -24 3 -30 13 -6 11 -9
12 -10 4 0 -10 -4 -9 -16 2 -8 9 -19 14 -24 11 -5 -3 -10 -1 -12 5 -1 5 -15
11 -30 12 -15 1 -24 6 -22 10 5 8 -5 11 -38 11 -10 0 -15 4 -12 8 5 8 -3 11
-22 8 -4 0 -10 5 -14 11 -4 7 -19 13 -34 13 -14 1 -26 7 -26 14 0 6 -9 10 -20
8 -11 -2 -20 1 -20 6 0 6 -5 7 -10 4 -5 -3 -10 -1 -10 4 0 6 -9 11 -19 11 -11
0 -23 5 -26 10 -3 6 -17 10 -31 10 -13 0 -24 5 -24 10 0 6 -9 10 -20 10 -11 0
-23 6 -26 14 -3 8 -15 11 -31 8 -18 -3 -24 -1 -19 7 6 9 -2 12 -29 11 -3 -1
-13 6 -21 15 -9 8 -20 13 -25 10 -5 -4 -9 -1 -9 4 0 6 -3 10 -7 10 -5 -1 -23
2 -41 6 -24 6 -30 10 -20 16 9 6 5 9 -13 9 -14 0 -45 10 -70 22 -24 11 -50 21
-56 21 -7 0 -13 4 -13 8 0 4 -14 10 -30 14 -16 4 -30 10 -30 14 0 4 -10 7 -22
8 -11 1 -24 7 -28 12 -9 15 -78 10 -91 -6 -6 -7 -15 -10 -20 -7 -5 3 -6 -3 -2
-12 4 -11 2 -15 -4 -11 -15 9 -22 -49 -9 -64 8 -9 6 -10 -8 -5 -16 5 -17 4 -6
-9 10 -12 10 -15 0 -15 -9 0 -9 -4 1 -17 8 -9 9 -14 3 -10 -7 4 -11 -11 -13
-45 -1 -29 -7 -56 -14 -60 -9 -6 -9 -8 1 -8 6 0 12 -5 12 -11 0 -5 -5 -7 -11
-3 -7 4 -9 -2 -7 -17 2 -19 -1 -23 -16 -21 -11 2 -15 -1 -11 -7 3 -6 2 -11 -3
-11 -6 0 -12 6 -15 14 -3 8 -16 13 -31 12 -14 -2 -23 1 -20 5 3 5 -3 12 -13
16 -10 4 -21 11 -25 17 -5 7 -8 7 -8 -2 0 -8 -8 -5 -22 8 -12 11 -32 20 -45
20 -13 0 -23 5 -23 10 0 6 -11 10 -25 10 -16 0 -25 6 -25 16 0 8 -3 13 -8 11
-4 -3 -12 1 -19 8 -10 11 -10 15 0 18 8 4 7 6 -3 6 -11 1 -15 14 -15 55 0 32
4 52 10 50 6 -3 11 19 13 53 1 32 7 60 13 62 7 2 6 7 -2 12 -10 6 -11 9 -1 9
8 0 12 16 12 48 0 26 6 54 12 61 11 11 10 12 -2 6 -12 -6 -13 -5 -3 6 7 7 13
32 13 56 0 27 5 43 13 44 9 0 9 2 -1 6 -10 4 -10 8 0 21 11 13 11 14 -2 7 -12
-7 -13 -6 -4 6 7 8 14 33 17 56 2 24 10 50 17 58 11 13 10 15 -6 9 -17 -5 -17
-4 -4 8 9 7 15 23 14 36 -1 12 3 25 8 28 4 3 5 11 1 17 -12 19 -11 48 1 38 10
-9 12 6 17 112 0 11 5 15 12 10 9 -5 8 -2 0 9 -7 8 -9 18 -5 22 8 9 9 14 11
57 1 21 5 28 14 23 9 -5 9 -4 0 6 -8 9 -9 19 -3 30 5 9 9 28 9 41 1 13 1 34 1
47 0 13 5 20 10 17 6 -3 10 -1 10 4 0 6 -5 11 -11 11 -8 0 -8 4 0 14 6 7 12
36 12 65 1 28 6 51 11 51 5 0 6 -5 2 -12 -5 -7 -3 -8 5 -4 9 6 8 13 -6 29 -10
11 -12 17 -5 13 8 -5 12 1 14 21 2 41 3 47 11 60 4 6 3 15 -3 18 -8 5 -7 12 2
22 7 8 13 25 13 37 0 11 4 27 9 35 6 10 6 12 -2 7 -7 -4 -12 -2 -12 3 0 6 4
11 10 11 5 0 7 6 4 14 -3 8 -2 16 3 19 5 3 8 22 8 41 -1 20 2 36 5 36 4 0 6
12 4 27 -1 15 1 32 5 38 4 5 9 33 10 60 2 28 7 52 13 54 6 2 5 7 -3 12 -10 6
-11 9 -1 9 8 0 12 15 12 43 0 24 6 49 12 55 10 10 10 15 -2 22 -10 7 -11 10
-2 10 8 0 12 16 12 44 0 25 5 48 11 52 8 4 7 9 -2 15 -10 6 -11 9 -1 9 7 0 12
15 12 40 0 25 5 40 13 41 8 0 8 2 -2 6 -11 5 -11 7 0 14 12 7 11 9 -1 9 -13 0
-13 2 -1 9 12 8 13 12 1 25 -11 14 -10 16 4 10 14 -5 16 -1 11 26 -4 24 -2 30
7 24 10 -5 10 -4 1 6 -9 10 -10 17 -1 27 6 7 12 30 13 51 1 20 5 48 9 61 6 18
5 22 -5 16 -8 -5 -6 0 3 11 10 12 16 30 13 44 -2 12 -1 28 2 33 8 12 10 26 18
117 4 36 9 67 13 70 4 3 9 21 10 40 2 19 12 42 23 51 10 9 19 21 19 27 0 7 7
9 17 5 10 -4 14 -2 10 4 -4 6 4 20 18 31 13 11 21 22 18 26 -3 3 0 6 9 6 8 0
21 11 28 25 7 13 17 22 22 19 4 -3 8 2 8 10 0 9 3 15 8 14 4 -2 9 1 12 6 12
22 73 81 82 78 5 -1 7 2 3 7 -3 6 4 15 15 21 11 6 20 7 20 3 0 -4 5 -2 12 5
15 15 21 16 13 2z m3206 -394 c23 14 49 12 50 -4 0 -10 3 -12 6 -5 3 10 8 10
19 -1 8 -8 14 -20 14 -26 0 -6 4 -9 8 -6 4 2 9 -7 10 -22 1 -14 8 -29 15 -34
9 -6 8 -8 -3 -8 -12 0 -12 -2 -2 -8 8 -5 13 -33 15 -73 1 -35 5 -66 9 -69 4
-3 8 -28 9 -55 1 -28 6 -56 12 -62 6 -9 5 -13 -4 -13 -11 0 -11 -2 0 -9 12 -8
13 -12 1 -26 -11 -14 -11 -16 1 -13 10 2 14 -10 14 -49 0 -29 3 -53 7 -53 4 0
4 -7 1 -17 -5 -11 -3 -14 6 -8 10 6 11 3 1 -15 -7 -12 -8 -20 -3 -17 8 5 15
-55 16 -126 0 -20 2 -24 8 -15 5 8 9 -11 9 -47 0 -35 5 -67 13 -74 10 -11 10
-13 0 -7 -7 4 -13 2 -13 -3 0 -6 4 -11 8 -11 9 0 10 -2 13 -72 1 -26 5 -46 9
-43 3 2 7 -2 7 -10 0 -8 -5 -11 -11 -8 -8 5 -7 2 0 -8 6 -8 11 -21 12 -29 1
-53 8 -90 17 -90 5 0 3 -5 -5 -10 -8 -5 -10 -10 -4 -10 5 0 10 -10 11 -22 1
-22 11 -108 16 -138 1 -8 5 -19 8 -25 2 -5 5 -29 4 -52 0 -24 3 -43 7 -43 4 0
5 -7 2 -15 -4 -9 0 -15 7 -15 9 0 10 -3 4 -8 -12 -9 -19 -36 -7 -28 5 3 9 -21
10 -52 0 -34 5 -58 12 -60 9 -3 8 -7 -1 -13 -10 -6 -11 -9 -1 -9 6 0 12 -5 12
-11 0 -5 -6 -7 -12 -3 -10 6 -10 4 0 -7 6 -7 12 -29 12 -49 0 -32 -3 -36 -26
-35 -14 1 -30 8 -35 16 -6 10 -9 10 -9 2 0 -7 -5 -13 -11 -13 -5 0 -8 4 -4 10
3 5 -9 8 -30 6 -20 -1 -38 1 -41 6 -3 5 -10 6 -15 3 -5 -4 -9 -1 -9 4 0 6 -3
10 -7 10 -29 -5 -73 3 -68 11 4 6 -16 10 -52 10 -41 0 -54 3 -43 10 11 7 5 10
-22 10 -23 0 -38 5 -39 13 0 9 -2 9 -6 -1 -3 -9 -9 -10 -17 -3 -7 6 -28 12
-46 15 -19 2 -36 8 -38 14 -1 5 -12 8 -22 5 -11 -3 -20 -1 -20 5 0 6 -23 13
-50 17 -28 4 -48 10 -46 14 3 4 -3 7 -12 8 -44 3 -60 8 -56 15 3 4 -9 8 -25 8
-17 0 -31 4 -31 10 0 5 -3 9 -7 9 -25 -4 -53 3 -66 16 -8 8 -17 12 -20 8 -3
-3 -20 2 -38 11 -17 9 -35 13 -40 10 -5 -3 -9 0 -9 6 0 6 -4 8 -10 5 -5 -3
-10 -1 -10 4 0 6 -9 11 -21 11 -11 0 -18 4 -15 9 3 5 0 9 -7 8 -6 0 -23 1 -37
2 -20 1 -22 3 -10 11 11 7 7 10 -17 10 -18 0 -33 5 -33 10 0 6 -9 10 -19 10
-11 0 -21 5 -23 10 -2 6 -13 12 -26 13 -12 0 -22 7 -22 14 0 7 -7 10 -15 7 -8
-4 -15 -1 -15 4 0 6 -10 12 -22 14 -13 2 -22 8 -21 14 1 5 -8 11 -19 11 -12 1
-30 10 -39 20 -16 16 -18 40 -20 193 -1 110 -6 180 -13 189 -8 11 -8 13 2 7 7
-4 12 -1 12 8 0 9 -5 16 -12 16 -9 0 -9 3 0 12 13 13 17 32 5 25 -5 -3 -9 6
-10 20 -1 19 1 22 8 12 7 -10 8 -8 6 8 -2 12 -6 26 -10 29 -4 4 -7 14 -7 23 0
14 2 14 10 1 6 -9 10 -10 10 -3 0 6 -5 15 -10 18 -8 5 -7 12 2 23 10 12 10 14
1 8 -7 -4 -13 -3 -13 1 0 5 6 15 13 22 6 7 8 12 2 11 -22 -5 -29 1 -15 10 13
8 13 11 1 19 -11 7 -10 11 5 20 18 10 18 10 -1 11 -18 1 -19 2 -2 9 10 4 18
10 18 14 -3 29 1 47 9 42 9 -6 14 10 13 42 -1 7 3 10 8 7 5 -3 9 3 9 13 1 21
42 71 62 75 7 2 16 7 20 12 3 5 17 11 29 13 13 2 26 7 29 11 9 14 87 41 95 34
5 -4 5 -1 1 6 -5 8 0 12 14 12 12 0 28 7 37 15 8 8 19 13 24 10 5 -4 9 -3 9 2
0 8 47 33 64 33 5 0 18 8 29 18 13 11 17 12 12 3 -5 -9 5 -5 22 7 17 12 41 22
52 22 12 0 21 5 21 10 0 6 9 10 19 10 11 0 21 5 23 11 2 6 16 12 31 12 15 0
24 3 21 8 -3 5 -2 9 3 10 30 3 48 9 51 19 2 5 8 8 13 4 5 -3 9 -1 9 5 0 5 9 8
20 6 11 -2 18 0 15 6 -4 5 6 9 20 9 15 0 24 4 20 10 -3 6 3 10 14 10 12 0 21
5 21 11 0 5 3 8 8 5 4 -2 25 4 47 14 22 10 44 16 49 13 5 -4 6 -1 2 5 -6 11
12 17 37 13 4 0 7 7 8 17 0 10 3 12 6 4 2 -6 9 -10 14 -6z m-1629 -90 c5 -8 8
-7 8 1 0 15 99 14 119 -1 11 -8 13 -8 7 2 -4 7 -2 12 6 12 8 0 20 -6 27 -12
11 -10 13 -10 7 0 -4 7 -2 12 6 12 8 0 20 -6 27 -12 8 -7 11 -8 8 -3 -4 7 21
11 69 12 49 0 74 -3 74 -11 0 -6 5 -4 10 4 8 12 10 11 10 -7 0 -13 -4 -23 -10
-23 -5 0 -10 -11 -10 -24 0 -13 -5 -26 -10 -28 -6 -2 -12 -13 -13 -25 0 -12
-5 -19 -9 -17 -7 5 -12 -18 -9 -39 1 -4 -6 -10 -14 -13 -8 -3 -13 -10 -10 -14
3 -5 1 -11 -4 -15 -6 -3 -7 -13 -4 -23 3 -9 2 -14 -2 -9 -10 8 -35 -45 -35
-75 0 -10 -4 -16 -10 -13 -5 3 -10 -3 -10 -14 0 -12 -4 -21 -10 -21 -5 0 -10
-9 -10 -19 0 -11 -5 -23 -11 -27 -14 -8 -50 36 -42 50 3 5 1 6 -5 2 -7 -4 -12
-1 -12 9 0 9 -4 13 -10 10 -5 -3 -10 3 -10 15 0 12 -4 18 -10 15 -9 -5 -15 9
-7 18 1 2 -10 15 -26 31 -15 15 -25 32 -21 37 3 5 0 8 -8 7 -7 -2 -12 3 -11
10 2 6 -4 12 -12 12 -10 0 -15 7 -13 18 2 9 -3 16 -9 15 -7 -2 -12 0 -11 5 2
7 -44 81 -71 114 -29 34 -22 45 28 44 25 0 49 -5 53 -10z m679 -1306 c11 0 17
-4 14 -10 -4 -6 5 -10 20 -10 15 0 24 -4 20 -10 -4 -6 5 -10 20 -10 15 0 24
-4 20 -10 -3 -5 3 -10 14 -10 12 0 21 -4 21 -10 0 -5 3 -9 8 -9 4 1 10 0 15
-1 12 -4 26 -7 38 -9 5 0 7 -6 4 -11 -4 -6 -3 -9 2 -8 18 6 92 -25 86 -36 -4
-6 2 -4 12 4 11 9 16 10 11 3 -5 -9 1 -13 19 -13 16 0 24 -4 20 -11 -4 -6 -1
-10 6 -8 28 3 50 -1 45 -9 -3 -5 0 -9 7 -10 61 -6 80 -10 87 -21 4 -8 13 -10
19 -7 6 4 11 1 11 -6 0 -9 3 -9 10 2 9 13 10 13 10 0 0 -10 11 -17 32 -18 18
-2 37 -7 42 -12 6 -6 22 -10 37 -10 15 0 31 -4 34 -10 3 -5 17 -10 30 -10 13
0 25 -4 27 -9 2 -5 19 -11 38 -12 19 -2 38 -7 41 -12 3 -4 17 -9 30 -9 13 -1
30 -6 38 -12 12 -9 13 -8 6 4 -7 13 -6 13 7 2 15 -12 45 -19 86 -21 7 -1 11
-5 8 -9 -3 -5 5 -8 17 -7 12 1 28 -2 35 -8 6 -5 12 -6 12 -2 0 4 8 1 17 -6 14
-12 16 -12 8 0 -6 11 -5 12 6 5 17 -10 36 -15 67 -17 12 0 22 -4 22 -7 0 -3
12 -7 28 -8 42 -4 56 -7 71 -16 10 -7 12 -5 6 3 -5 9 -1 9 14 -1 18 -11 24
-32 20 -64 0 -4 5 -11 13 -15 10 -7 10 -9 -2 -9 -10 0 -11 -3 -3 -8 10 -6 16
-54 14 -109 -1 -19 -6 -21 -50 -20 -27 1 -44 5 -38 9 9 6 9 8 0 8 -23 0 -28 2
-40 12 -9 8 -13 7 -14 -3 0 -10 -2 -11 -6 -1 -2 6 -9 10 -14 6 -5 -3 -9 -1 -9
3 0 5 -14 10 -32 11 -18 2 -35 7 -39 13 -3 6 -9 10 -13 10 -3 -1 -21 -1 -38
-1 -25 0 -29 3 -18 10 11 7 6 10 -20 10 -20 0 -40 4 -45 9 -6 6 -29 11 -52 12
-23 2 -40 6 -37 11 3 4 -9 8 -25 8 -18 0 -31 5 -32 13 0 8 -2 8 -6 -2 -4 -9
-8 -10 -12 -2 -4 6 -19 12 -34 13 -15 1 -27 7 -27 12 0 5 -3 6 -7 3 -3 -4 -13
-1 -21 6 -13 10 -14 9 -8 -1 7 -12 4 -12 -14 -2 -12 6 -28 9 -36 6 -8 -3 -17
0 -20 8 -3 7 -10 13 -17 14 -7 0 -23 3 -37 5 -23 4 -33 7 -80 24 -20 8 -41 13
-62 15 -9 1 -14 6 -12 10 3 4 -9 8 -26 8 -17 0 -29 4 -25 9 3 5 1 12 -5 16 -5
3 -10 2 -10 -4 0 -5 -12 -5 -30 2 -16 6 -30 15 -30 19 0 4 -9 5 -19 3 -11 -2
-22 3 -25 12 -4 8 -13 13 -21 9 -8 -3 -21 1 -29 9 -8 8 -24 15 -36 15 -12 0
-18 5 -15 10 4 6 -5 10 -19 10 -14 0 -26 5 -26 10 0 6 -11 10 -24 10 -13 0
-29 7 -36 15 -6 8 -17 13 -23 12 -7 -1 -11 3 -10 10 2 7 -6 10 -17 8 -14 -3
-20 2 -20 13 0 15 -2 15 -10 2 -7 -11 -10 -6 -10 21 0 19 -6 41 -12 48 -10 11
-10 13 0 7 6 -4 12 -3 12 1 0 5 -6 15 -12 22 -10 11 -10 13 0 7 6 -4 12 -2 12
3 0 6 -6 11 -12 12 -10 0 -10 2 0 6 6 2 12 11 12 18 0 7 -6 16 -12 18 -10 4
-10 8 -2 14 6 4 15 19 20 33 6 20 9 21 12 8 2 -10 12 -18 23 -18z m19 -311 c0
-5 8 -9 18 -9 10 0 24 -6 31 -12 12 -13 16 -14 47 -17 8 0 12 -6 9 -12 -4 -6
-1 -10 6 -8 28 3 40 -1 33 -13 -4 -6 -3 -8 3 -5 5 3 22 -1 38 -9 15 -8 38 -15
51 -16 12 -1 20 -6 18 -10 -3 -4 4 -8 15 -8 27 0 52 -11 46 -20 -3 -5 4 -6 15
-3 15 4 20 0 21 -13 0 -18 1 -18 9 1 6 17 9 17 14 5 4 -9 19 -17 33 -18 15 -1
32 -7 37 -12 6 -6 20 -10 33 -10 13 0 23 -6 23 -12 0 -9 4 -8 10 2 6 10 10 11
10 3 0 -7 8 -13 18 -13 10 0 24 -6 31 -12 11 -11 12 -10 6 2 -7 12 -6 13 6 3
9 -7 29 -13 46 -15 18 -1 29 -6 27 -10 -3 -4 16 -8 43 -8 37 0 45 -3 33 -11
-12 -9 -11 -10 8 -6 12 3 29 -1 37 -10 8 -8 15 -10 15 -5 0 5 7 9 15 9 9 0 14
-6 11 -13 -3 -7 2 -10 15 -7 10 3 27 -1 36 -8 15 -12 16 -12 8 1 -7 12 -6 13
6 3 9 -7 24 -14 35 -16 10 -1 25 -6 32 -10 6 -5 17 -5 22 -2 6 3 10 2 10 -2 0
-5 17 -10 38 -11 20 -2 39 -7 40 -12 2 -6 17 -10 33 -10 16 0 29 -4 29 -10 0
-5 3 -9 8 -9 4 1 20 1 35 0 20 -1 26 -5 21 -13 -5 -8 0 -7 11 2 10 8 16 10 12
4 -4 -7 5 -14 26 -19 28 -6 30 -8 12 -15 -11 -5 -15 -9 -10 -10 6 0 2 -5 -8
-11 -9 -5 -22 -7 -27 -4 -6 3 -10 -2 -11 -12 0 -11 -3 -13 -6 -5 -4 10 -9 8
-21 -5 -10 -10 -26 -20 -37 -21 -11 -2 -22 -7 -25 -10 -8 -11 -49 -32 -61 -32
-6 0 -17 -7 -26 -15 -8 -8 -19 -13 -24 -9 -5 3 -12 -1 -15 -10 -3 -8 -11 -13
-19 -10 -7 3 -15 -2 -19 -11 -4 -10 -12 -15 -21 -11 -9 3 -18 0 -21 -7 -2 -7
-14 -14 -27 -14 -12 -1 -23 -7 -25 -13 -2 -5 -10 -10 -18 -10 -8 0 -14 -4 -14
-10 0 -5 -14 -10 -31 -10 -17 0 -28 -4 -24 -10 6 -10 -7 -14 -34 -11 -7 2 -10
-2 -6 -8 5 -10 -1 -13 -21 -10 -4 0 -10 -4 -14 -11 -4 -6 -17 -12 -28 -13 -12
-1 -22 -7 -22 -14 0 -7 -3 -12 -7 -12 -25 4 -43 -2 -37 -13 4 -6 3 -8 -3 -5
-6 4 -19 0 -29 -8 -10 -8 -26 -15 -36 -15 -9 0 -18 -4 -20 -9 -1 -5 -10 -11
-18 -13 -8 -2 -18 -7 -21 -11 -3 -4 -15 -9 -27 -10 -11 0 -19 -4 -17 -8 3 -3
-16 -14 -40 -24 -25 -9 -45 -20 -45 -24 0 -4 -10 -8 -22 -8 -13 -1 -24 -7 -26
-13 -2 -5 -12 -10 -23 -10 -10 0 -19 -4 -19 -10 0 -5 -9 -10 -19 -10 -11 0
-21 -4 -23 -9 -1 -5 -12 -11 -23 -13 -11 -1 -25 -9 -30 -16 -6 -7 -20 -14 -32
-15 -12 0 -19 -5 -17 -9 3 -4 -2 -8 -10 -8 -9 0 -16 -4 -16 -10 0 -5 -3 -9 -7
-9 -23 4 -43 -2 -38 -11 4 -7 -6 -10 -28 -8 -19 1 -34 7 -34 14 0 7 4 11 9 8
4 -3 8 0 8 5 0 6 -5 11 -11 11 -8 0 -7 6 2 17 10 11 10 14 2 9 -7 -4 -13 -2
-13 3 0 6 6 11 13 11 8 0 7 4 -3 10 -13 9 -13 10 0 10 11 0 12 2 3 8 -14 9
-13 54 2 64 7 5 6 8 -1 8 -8 0 -12 56 -13 182 -2 129 -6 185 -14 190 -9 6 -9
8 0 8 6 0 11 13 11 30 -1 16 -4 27 -9 25 -9 -6 -6 22 4 31 10 10 9 26 -1 20
-5 -3 -9 1 -9 9 0 8 4 12 9 9 4 -3 8 0 8 5 0 6 -4 11 -10 11 -5 0 -10 5 -10
11 0 5 6 7 13 3 10 -6 10 -4 0 7 -15 16 -17 33 -3 24 6 -3 10 -1 10 4 0 6 -4
11 -10 11 -14 0 -12 33 3 49 7 9 7 11 1 8 -9 -5 -12 26 -13 113 -1 67 1 124 3
129 7 11 56 2 56 -10z"/>
<path d="M2333 4654 c-2 -7 -13 -11 -24 -9 -10 2 -25 -3 -34 -11 -8 -8 -17
-15 -20 -14 -25 1 -29 -1 -17 -9 11 -7 11 -9 -2 -14 -18 -7 -16 -49 2 -55 7
-2 12 -11 12 -19 0 -10 6 -14 19 -10 12 3 22 -1 25 -9 3 -9 20 -14 45 -14 22
0 42 -5 44 -12 4 -10 6 -9 6 1 1 11 4 11 18 0 15 -12 16 -12 8 1 -6 12 -5 13
6 3 7 -7 19 -13 27 -13 8 0 10 5 6 13 -5 9 -4 9 6 0 11 -10 17 -10 29 0 10 8
13 8 8 1 -7 -13 59 -17 78 -6 16 10 36 11 29 1 -3 -5 -1 -9 5 -9 5 0 13 5 16
10 5 8 12 7 23 -2 12 -10 14 -10 8 0 -5 9 5 12 38 12 25 0 46 5 46 10 0 6 8
10 18 10 27 0 52 36 52 76 0 19 -4 33 -9 29 -5 -3 -12 -1 -16 5 -4 6 -11 8
-16 5 -5 -4 -9 0 -9 8 0 8 -8 14 -17 14 -40 0 -54 3 -49 11 3 5 -1 9 -9 9 -8
0 -15 -5 -15 -10 0 -6 -5 -5 -12 1 -18 14 -259 12 -277 -2 -9 -7 -12 -7 -9 -1
4 6 -2 11 -14 11 -11 0 -22 -6 -25 -12z m82 -64 c-2 -4 2 -7 10 -7 8 0 12 4
10 8 -3 4 15 7 40 7 29 -1 42 -5 38 -12 -5 -8 -3 -8 8 -1 21 16 68 18 84 5 9
-7 15 -8 20 -1 4 7 15 6 34 -4 16 -8 31 -11 35 -8 3 4 6 1 6 -5 0 -7 -16 -12
-41 -12 -22 0 -50 -5 -61 -11 -11 -6 -18 -7 -14 -1 3 5 -5 10 -19 10 -14 0
-22 -4 -19 -9 3 -5 -2 -9 -11 -9 -9 0 -13 5 -10 10 8 13 -18 8 -27 -5 -5 -6
-8 -5 -8 4 0 11 -3 11 -15 1 -12 -10 -18 -10 -30 0 -12 10 -15 10 -16 -1 0
-10 -2 -11 -6 -1 -2 6 -22 12 -43 12 -21 0 -42 5 -45 10 -4 6 -3 10 2 9 24 -4
63 2 59 9 -3 5 1 9 9 9 8 0 12 -3 10 -7z"/>
<path d="M1003 3979 c-13 -5 -23 -6 -23 -2 0 3 -7 0 -15 -7 -8 -7 -15 -9 -15
-5 0 4 -6 2 -13 -4 -8 -6 -18 -7 -23 -3 -4 4 -2 -2 6 -12 10 -13 11 -17 2 -12
-14 8 -62 -31 -62 -51 0 -7 -5 -13 -11 -13 -5 0 -8 -4 -5 -8 3 -5 -2 -21 -10
-36 -16 -33 -18 -48 -3 -26 9 12 9 11 3 -5 -4 -11 -10 -48 -12 -83 -2 -34 -8
-60 -13 -56 -5 3 -9 1 -9 -5 0 -5 6 -12 13 -14 10 -4 10 -6 0 -6 -7 -1 -13
-14 -13 -29 0 -15 -6 -34 -12 -41 -8 -8 -8 -11 -2 -8 7 4 12 -3 12 -18 0 -14
-5 -22 -10 -19 -6 4 -5 -4 2 -16 8 -15 8 -20 1 -16 -7 5 -11 -5 -12 -26 -1
-36 -5 -69 -15 -108 -4 -14 -8 -41 -9 -60 -1 -19 -7 -46 -15 -60 -13 -24 -12
-24 5 -10 17 14 18 14 5 -10 -8 -14 -14 -34 -15 -45 -1 -11 -2 -35 -3 -53 -1
-18 -6 -31 -10 -28 -12 7 -9 -48 3 -56 6 -5 6 -8 -1 -8 -11 0 -12 -6 -15 -65
0 -19 -5 -32 -10 -29 -5 3 -9 0 -9 -5 0 -6 6 -11 13 -11 9 0 9 -2 0 -8 -7 -4
-13 -33 -14 -65 -1 -31 -5 -57 -9 -57 -4 0 -8 -26 -9 -57 -1 -32 -8 -61 -14
-65 -8 -5 -8 -8 -1 -8 6 0 11 -7 11 -15 0 -8 -3 -12 -7 -10 -4 2 -8 -19 -9
-47 -1 -29 -7 -56 -14 -60 -7 -5 -8 -8 -1 -8 6 0 11 -7 11 -15 0 -8 -4 -12 -9
-9 -13 8 -10 -10 5 -25 10 -11 10 -13 0 -7 -13 7 -19 -24 -15 -81 0 -13 -3
-23 -7 -23 -4 0 -8 -12 -9 -27 -5 -89 -11 -125 -23 -140 -12 -14 -12 -16 0 -8
11 6 13 4 7 -11 -11 -27 -16 -54 -18 -96 -1 -20 -5 -35 -9 -33 -9 6 -6 -15 4
-32 4 -6 3 -14 -3 -18 -5 -3 -10 -27 -10 -53 0 -34 -3 -43 -10 -32 -6 9 -10
10 -10 3 0 -6 5 -15 10 -18 8 -5 8 -11 0 -19 -5 -7 -11 -48 -12 -90 -1 -68 2
-79 22 -101 29 -31 75 -55 107 -55 12 0 23 -4 23 -9 0 -9 48 -26 63 -23 4 1 7
-2 7 -8 0 -5 6 -7 14 -4 7 3 16 -2 19 -10 4 -9 13 -13 22 -10 8 3 15 1 15 -5
0 -6 3 -10 8 -10 18 4 71 -14 66 -22 -3 -5 9 -9 26 -9 19 0 29 -4 25 -10 -4
-6 -3 -10 2 -9 4 1 22 1 38 0 23 -1 27 -3 15 -11 -12 -8 -11 -10 8 -10 12 0
25 0 28 1 4 0 10 -4 13 -10 4 -6 19 -12 33 -13 15 -1 25 -5 22 -9 -2 -4 0 -10
6 -14 5 -3 10 -1 10 5 0 7 9 5 22 -4 12 -9 30 -16 40 -16 9 0 23 -6 30 -12 7
-7 24 -15 38 -16 14 -2 27 -8 28 -13 2 -5 10 -9 18 -9 8 0 33 -9 57 -19 23
-11 52 -22 65 -26 12 -3 22 -12 22 -18 0 -8 3 -8 9 1 7 11 11 11 23 -2 9 -8
18 -12 22 -9 3 4 6 1 6 -5 0 -7 11 -12 24 -12 14 0 28 -4 31 -10 3 -5 17 -10
31 -10 13 0 24 -4 24 -10 0 -5 12 -10 26 -10 14 0 23 -4 19 -10 -4 -6 5 -10
19 -10 14 0 26 -6 26 -12 0 -9 4 -8 10 2 6 10 10 11 10 3 0 -7 9 -13 20 -13
11 0 20 -4 20 -10 0 -5 9 -10 20 -10 11 0 20 -5 20 -11 0 -5 5 -7 10 -4 6 3
10 2 10 -3 0 -5 10 -9 23 -8 12 1 27 -4 34 -10 7 -6 32 -18 57 -25 26 -7 46
-17 46 -21 0 -4 15 -8 33 -8 24 0 28 -3 17 -10 -11 -7 -5 -10 23 -10 23 0 36
-4 32 -10 -3 -6 1 -11 9 -11 23 -2 30 -4 41 -10 20 -11 68 9 75 31 2 8 5 545
5 1192 1 824 -2 1176 -9 1175 -6 -1 -11 7 -11 18 -1 11 -7 19 -14 17 -7 -1
-10 2 -7 7 4 5 -1 16 -9 24 -8 9 -15 19 -15 23 0 9 -70 74 -70 65 0 -3 -7 2
-14 11 -7 10 -25 19 -39 20 -14 1 -23 6 -21 10 3 4 -6 8 -20 8 -14 0 -26 5
-26 10 0 6 -11 10 -25 10 -14 0 -25 4 -25 8 0 8 -7 10 -47 13 -10 1 -26 8 -35
16 -9 8 -21 12 -27 9 -5 -3 -11 -1 -13 6 -4 10 -23 17 -55 20 -7 1 -13 5 -13
10 0 5 -4 6 -10 3 -5 -3 -10 -2 -10 4 0 6 -7 7 -17 4 -12 -5 -14 -3 -8 8 7 11
5 11 -10 -1 -11 -9 -16 -10 -11 -2 5 8 1 12 -13 12 -11 0 -23 5 -26 10 -3 6
-17 10 -31 10 -13 0 -24 4 -24 8 0 4 -12 9 -26 10 -33 3 -46 11 -38 24 4 7 2
8 -5 4 -6 -4 -19 -2 -28 6 -12 9 -15 9 -9 1 5 -9 2 -11 -8 -7 -9 3 -16 11 -16
16 0 6 -7 8 -15 4 -8 -3 -20 0 -27 7 -7 7 -24 14 -38 15 -14 2 -26 8 -28 13
-2 5 -15 9 -28 9 -14 0 -23 4 -20 9 3 5 -6 9 -21 9 -15 0 -29 5 -31 11 -2 6
-12 11 -21 11 -10 0 -21 3 -25 7 -6 6 -18 9 -63 15 -7 1 -14 6 -16 12 -3 6
-20 11 -38 11 -19 -1 -36 2 -39 6 -3 4 -15 3 -27 -2z m51 -81 c-5 -8 0 -7 11
2 11 9 16 10 11 3 -5 -9 0 -13 13 -13 12 0 21 -4 21 -8 0 -4 8 -9 18 -10 9 -1
26 -3 37 -4 11 -2 24 -9 28 -16 5 -7 13 -9 19 -6 6 4 14 1 18 -5 4 -7 16 -14
26 -16 10 -2 21 -4 24 -5 3 -1 10 -3 15 -5 37 -9 54 -19 48 -29 -4 -6 2 -4 12
4 11 9 16 10 11 3 -4 -8 -1 -13 8 -14 24 -2 29 -4 54 -17 12 -7 22 -9 22 -5 0
4 5 2 12 -5 7 -7 20 -12 30 -12 10 0 18 -5 18 -11 0 -5 5 -7 10 -4 6 4 17 1
25 -5 8 -7 24 -9 37 -5 21 6 21 6 5 -6 -16 -13 -14 -14 15 -15 18 -1 34 -7 36
-14 3 -9 6 -9 13 1 6 10 9 11 9 2 0 -7 9 -13 19 -13 11 0 23 -4 26 -10 3 -5
15 -10 26 -10 10 0 19 -4 19 -8 0 -4 12 -9 28 -10 15 -1 29 -7 30 -12 2 -6 15
-10 28 -10 14 0 22 -4 19 -10 -3 -5 -1 -10 4 -10 6 0 11 6 11 13 0 9 2 9 9 -1
4 -7 17 -14 29 -15 11 0 19 -4 16 -8 -6 -10 45 -21 58 -13 7 4 8 3 4 -5 -4 -6
0 -14 8 -17 11 -4 16 -20 16 -51 0 -33 -3 -42 -12 -37 -10 6 -10 5 -2 -7 16
-19 16 -149 0 -149 -6 0 -4 -5 4 -11 12 -9 13 -12 1 -16 -11 -4 -11 -7 0 -13
10 -7 10 -12 -2 -26 -9 -11 -9 -15 -1 -10 15 9 15 1 2 -24 -7 -13 -7 -21 1
-26 8 -4 7 -9 -2 -15 -11 -7 -11 -9 1 -9 13 0 13 -1 0 -10 -10 -6 -11 -10 -2
-10 6 0 12 -5 12 -11 0 -5 -4 -8 -8 -5 -11 6 -9 -34 1 -51 5 -8 3 -13 -4 -13
-8 0 -8 -4 1 -15 9 -10 9 -15 1 -15 -6 0 -11 -5 -11 -11 0 -5 4 -8 8 -5 4 2 8
-17 8 -44 0 -27 -4 -46 -8 -44 -4 3 -8 -2 -8 -11 0 -10 5 -14 13 -9 10 6 10 4
0 -7 -15 -15 -18 -33 -5 -25 5 3 9 -1 9 -9 0 -8 -4 -12 -9 -9 -13 8 -9 -10 5
-25 6 -7 8 -11 2 -9 -5 2 -11 -1 -12 -7 -1 -5 -11 -13 -23 -17 -12 -4 -19 -11
-17 -15 3 -5 -5 -9 -18 -9 -13 -1 -34 -11 -46 -23 -13 -12 -29 -19 -35 -17 -7
3 -15 -2 -18 -10 -3 -8 -17 -14 -31 -14 -15 0 -24 -4 -20 -10 3 -5 -3 -10 -14
-10 -12 0 -21 -4 -21 -10 0 -5 -9 -10 -21 -10 -13 0 -18 -4 -13 -12 5 -8 2 -9
-9 -5 -10 4 -17 2 -17 -4 0 -6 -6 -9 -14 -6 -8 3 -17 -1 -20 -9 -3 -8 -12 -14
-21 -14 -8 0 -15 -5 -15 -11 0 -5 -4 -8 -9 -4 -5 3 -17 -3 -27 -12 -10 -10
-19 -17 -21 -15 -9 7 -33 0 -28 -8 3 -5 -1 -10 -10 -10 -9 0 -27 -7 -40 -16
-14 -9 -25 -12 -25 -8 0 5 -4 5 -8 -1 -9 -13 -72 -48 -72 -40 0 4 -7 -1 -16
-9 -8 -9 -19 -14 -24 -11 -4 3 -11 -2 -14 -11 -3 -8 -10 -13 -14 -10 -5 3 -18
-1 -28 -9 -10 -8 -27 -15 -37 -15 -11 0 -15 -4 -11 -12 5 -8 2 -9 -9 -5 -10 3
-17 2 -17 -2 0 -5 -10 -7 -22 -4 -19 4 -20 3 -8 -6 13 -9 12 -11 -5 -12 -11
-1 -23 -1 -27 0 -5 0 -8 -4 -8 -11 0 -6 -3 -8 -7 -5 -3 4 -12 2 -20 -5 -7 -6
-16 -8 -20 -5 -3 4 -12 -1 -20 -11 -8 -9 -12 -12 -9 -5 5 8 0 8 -19 0 -14 -7
-25 -15 -25 -19 0 -5 -9 -8 -19 -8 -11 0 -23 -4 -26 -10 -3 -5 -15 -10 -25
-10 -11 0 -35 -9 -55 -20 -20 -11 -43 -20 -51 -20 -8 0 -22 -7 -31 -15 -8 -8
-19 -13 -24 -10 -4 3 -21 -2 -36 -12 -15 -10 -28 -17 -30 -15 -7 6 -24 1 -19
-6 2 -4 -4 -9 -15 -9 -15 -1 -19 5 -19 33 0 20 5 34 13 34 8 0 7 4 -3 10 -10
6 -11 10 -2 10 8 0 12 18 12 56 0 41 3 53 13 48 9 -6 9 -4 -1 8 -7 9 -9 19 -4
22 5 3 10 18 11 33 1 15 2 42 4 58 1 17 6 33 12 37 6 5 4 8 -5 8 -13 0 -13 1
0 11 12 9 13 12 1 16 -10 4 -10 7 -1 13 6 4 13 26 15 49 2 23 8 48 15 55 8 10
8 16 0 21 -6 3 -7 11 -4 17 7 11 11 39 13 91 1 16 5 26 10 23 11 -7 8 35 -4
54 -5 9 -4 11 3 6 9 -5 12 7 13 41 1 26 1 51 0 56 0 4 3 7 8 7 4 0 9 23 10 51
0 29 6 59 13 67 9 11 9 14 1 9 -8 -5 -11 -1 -10 12 0 11 5 17 9 15 4 -3 8 2 8
11 0 10 -5 13 -12 9 -10 -6 -10 -5 -1 7 6 8 13 37 15 64 2 28 8 56 13 64 4 8
8 34 8 58 -1 23 3 40 8 37 5 -3 4 7 -1 21 -6 15 -6 24 -1 20 6 -3 10 3 10 12
-1 33 9 91 16 104 5 8 4 10 -3 5 -7 -4 -12 -2 -12 3 0 6 8 11 18 11 14 0 15 2
2 10 -13 9 -13 10 0 11 10 0 11 2 2 6 -6 2 -9 10 -5 16 4 7 8 24 9 40 3 55 4
58 17 51 10 -6 10 -4 0 7 -16 16 -17 33 -2 23 8 -5 8 -1 0 14 -7 14 -8 23 -1
27 5 3 10 17 10 31 0 14 4 22 10 19 6 -3 10 1 10 10 0 31 50 64 98 64 24 1 31
-2 26 -11z m-284 -1038 c0 -5 -2 -10 -4 -10 -3 0 -8 5 -11 10 -3 6 -1 10 4 10
6 0 11 -4 11 -10z m1220 -497 c0 -3 -8 -2 -17 1 -17 6 -17 5 -1 -7 15 -12 17
-32 16 -141 -1 -98 1 -129 12 -136 16 -10 101 -7 118 4 7 4 12 2 12 -3 0 -6 6
-11 14 -11 10 0 13 -15 13 -55 0 -32 -5 -55 -11 -55 -8 0 -8 -3 -1 -8 14 -9
14 -135 1 -144 -7 -5 -7 -8 2 -8 16 0 13 -80 -2 -80 -8 0 -8 -3 0 -8 14 -10
14 -215 0 -224 -7 -5 -7 -8 2 -8 16 0 13 -80 -2 -80 -8 0 -8 -3 -1 -8 14 -9
14 -135 1 -144 -7 -5 -7 -8 2 -8 6 0 12 -9 12 -21 0 -13 -4 -18 -12 -13 -10 6
-10 4 0 -7 6 -7 12 -22 12 -34 0 -16 -2 -17 -10 -5 -5 8 -10 10 -10 5 0 -6 5
-16 11 -22 8 -8 5 -13 -11 -18 -15 -5 -26 -2 -31 6 -7 11 -9 11 -9 1 0 -10 -4
-10 -16 2 -8 9 -26 16 -39 16 -13 0 -27 5 -30 10 -3 6 -15 10 -25 10 -10 0
-20 4 -22 10 -1 5 -15 11 -30 12 -15 1 -24 6 -22 10 3 4 -8 8 -25 8 -16 0 -31
4 -33 10 -1 5 -15 11 -30 12 -15 1 -24 6 -22 10 3 4 -4 8 -15 8 -10 0 -21 4
-23 9 -1 6 -16 12 -33 14 -17 3 -29 10 -27 17 2 7 -3 10 -11 7 -8 -3 -24 1
-36 10 -12 8 -28 12 -36 9 -7 -2 -19 2 -25 10 -7 8 -23 14 -36 14 -12 0 -26 5
-29 10 -3 6 -13 10 -21 10 -9 0 -22 6 -30 14 -7 8 -23 12 -34 9 -13 -4 -20 0
-20 9 0 9 -10 13 -30 12 -16 -1 -28 3 -27 8 1 6 -9 12 -23 14 -14 3 -26 9 -28
14 -2 6 -11 10 -21 10 -9 0 -23 6 -30 13 -11 10 -12 9 -6 -3 6 -12 5 -13 -6
-3 -7 7 -21 13 -32 13 -10 0 -15 5 -12 10 6 9 -14 14 -42 11 -6 -1 -14 3 -18
9 -3 5 -15 10 -25 10 -10 0 -20 5 -22 11 -2 7 -18 12 -35 13 -17 0 -29 4 -26
9 4 6 -5 9 -23 6 -4 0 -10 5 -15 12 -4 7 -23 15 -41 17 -18 2 -36 8 -39 13 -3
6 -15 11 -27 12 -11 0 -18 5 -16 9 5 7 -36 13 -59 9 -5 -1 -6 3 -2 9 3 5 -3
10 -14 10 -11 0 -26 7 -34 15 -8 8 -17 11 -21 8 -3 -3 -12 -1 -19 5 -8 7 -17
9 -20 5 -4 -3 -7 -1 -7 6 0 8 -8 11 -20 8 -11 -3 -20 -1 -20 4 0 5 -11 11 -25
15 -14 3 -22 10 -19 15 3 5 -2 9 -10 9 -38 0 6 59 46 62 15 1 30 8 32 14 3 7
16 11 30 10 14 -2 23 1 20 5 -3 5 0 9 5 9 22 0 26 2 45 18 15 13 17 13 11 2
-7 -12 -6 -13 7 -3 8 7 17 11 20 8 3 -3 11 1 18 10 7 8 26 15 42 15 17 0 27 4
23 10 -3 6 3 10 14 10 11 0 36 9 56 20 36 20 63 28 35 10 -12 -7 -10 -9 7 -7
12 0 19 5 17 9 -3 5 3 11 13 14 10 3 25 8 33 11 8 4 21 7 29 9 8 1 17 6 20 11
3 4 17 10 31 11 14 2 27 8 28 13 2 5 17 9 33 9 18 0 28 4 24 10 -5 8 19 15 28
8 2 -2 11 5 20 14 10 9 26 15 37 13 11 -2 19 1 17 8 -1 7 6 11 16 9 9 -2 17 1
17 5 0 5 23 17 50 28 28 11 50 23 50 27 0 4 9 8 20 8 11 0 20 5 20 10 0 6 12
10 26 10 14 0 23 4 19 10 -3 6 3 10 14 10 10 0 21 3 23 8 2 4 40 25 84 47 45
22 79 44 76 49 -3 5 -1 6 5 3 5 -3 22 1 37 9 16 7 35 14 43 14 8 0 11 5 8 10
-3 6 1 10 10 10 9 0 32 11 52 24 30 21 63 25 63 9z"/>
<path d="M531 3954 c0 -11 3 -14 6 -6 3 7 2 16 -1 19 -3 4 -6 -2 -5 -13z"/>
<path d="M4062 434 c2 -21 4 -22 18 -9 9 8 20 12 23 8 4 -3 7 -1 7 5 0 7 -3
12 -7 13 -5 0 -16 2 -25 4 -13 2 -17 -3 -16 -21z"/>
</g>
</svg>
