<?xml version="1.0" standalone="no"?>
<!DOCTYPE svg PUBLIC "-//W3C//DTD SVG 20010904//EN"
 "http://www.w3.org/TR/2001/REC-SVG-20010904/DTD/svg10.dtd">
<svg version="1.0" xmlns="http://www.w3.org/2000/svg"
 width="283.000000pt" height="283.000000pt" viewBox="0 0 283.000000 283.000000"
 preserveAspectRatio="xMidYMid meet">
<metadata>
Created by potrace 1.14, written by Peter Selinger 2001-2017
</metadata>
<g transform="translate(0.000000,283.000000) scale(0.100000,-0.100000)"
fill="#000000" stroke="none">
<path d="M1800 2750 c-157 -43 -337 -93 -400 -112 l-115 -33 -466 -5 -466 -5
-41 -29 c-56 -39 -82 -95 -82 -178 l0 -65 -63 -17 c-35 -10 -87 -31 -115 -47
l-52 -29 0 -66 c0 -52 23 -150 115 -488 l115 -423 0 -438 c0 -427 1 -440 21
-483 33 -67 85 -96 178 -100 l76 -4 18 -61 c21 -70 64 -150 77 -142 4 3 10 -1
13 -8 3 -9 24 -14 53 -16 47 -1 145 23 720 180 l181 49 444 0 c409 0 447 2
484 19 73 33 105 93 105 195 l0 64 53 12 c56 12 118 47 155 88 15 18 22 38 22
68 0 43 -51 242 -167 654 l-57 205 -6 471 -5 470 -28 43 c-37 56 -91 80 -178
81 l-65 0 -13 53 c-13 51 -50 125 -79 160 -31 36 -123 22 -432 -63z m-670
-179 c-8 -5 -127 -39 -265 -76 -137 -37 -329 -89 -425 -115 -96 -26 -178 -45
-182 -43 -14 7 -9 92 7 130 21 50 42 72 90 94 37 17 72 19 415 18 215 0 369
-3 360 -8z m1376 -26 c71 -55 69 -37 72 -469 2 -215 -1 -387 -5 -383 -11 12
-240 876 -234 883 3 3 35 4 70 0 47 -4 72 -12 97 -31z m-638 -840 c157 -71
130 -184 -58 -239 -54 -16 -55 -16 -72 6 -24 32 -23 35 16 42 41 8 86 56 86
92 0 13 -13 38 -29 56 -26 29 -35 33 -81 33 -46 0 -55 -4 -81 -33 -18 -20 -29
-43 -29 -62 0 -17 -5 -30 -12 -30 -31 0 -58 14 -58 29 1 34 40 101 72 121 48
31 160 24 246 -15z m-811 -27 c-3 -8 -6 -5 -6 6 -1 11 2 17 5 13 3 -3 4 -12 1
-19z m570 -175 c36 -16 93 -84 93 -110 0 -20 -28 -16 -35 6 -10 32 -79 88
-118 95 -70 13 -153 -26 -186 -88 -12 -22 -41 -37 -41 -21 0 15 31 63 58 88
60 57 148 69 229 30z m381 -27 c41 -21 91 -96 64 -96 -13 0 -111 98 -104 104
8 8 9 8 40 -8z m-708 -21 c23 -14 -4 -26 -46 -19 -48 7 -122 -14 -144 -42 -7
-7 -22 -14 -34 -14 -19 0 -18 2 10 31 41 41 98 60 157 55 26 -3 52 -8 57 -11z
m304 -36 c29 -23 34 -39 11 -39 -8 0 -15 4 -15 8 0 12 -46 32 -74 32 -13 0
-35 -9 -49 -20 -30 -24 -49 -26 -41 -5 17 45 123 60 168 24z m364 -15 c34 -22
19 -30 -27 -14 -37 12 -55 11 -110 -6 -35 -10 -17 14 23 32 35 16 78 11 114
-12z m-731 -20 c-3 -3 -12 -4 -19 -1 -8 3 -5 6 6 6 11 1 17 -2 13 -5z m870
-68 c13 -12 -23 -146 -58 -216 -44 -88 -127 -177 -215 -230 l-58 -35 -205 -3
c-178 -3 -210 -1 -246 14 -164 72 -293 242 -320 426 l-7 47 48 3 c83 5 1055 0
1061 -6z m-1733 -597 c63 -233 116 -433 118 -444 2 -17 -3 -21 -34 -23 -90 -8
-175 46 -197 123 -11 40 -17 784 -6 773 3 -3 57 -196 119 -429z m1366 26 l0
-25 -185 0 -185 0 0 25 0 25 185 0 185 0 0 -25z m840 -292 c0 -68 -16 -115
-47 -146 -59 -56 -69 -57 -479 -57 -208 0 -375 2 -372 5 5 5 109 34 393 110
77 20 219 59 315 85 96 27 178 49 183 49 4 1 7 -20 7 -46z"/>
</g>
</svg>
